HIERARCHY
ROOT hip
{
  OFFSET 0 0 0
  CHANNELS 6 Xposition Yposition Zposition Zrotation Yrotation Xrotation
  JOINT abdomen
  {
    OFFSET 0 20.6881 -0.73152
    CHANNELS 3 Zrotation Xrotation Yrotation
    JOINT chest
    {
      OFFSET 0 11.7043 -0.48768
      CHANNELS 3 Zrotation Xrotation Yrotation
      JOINT neck
      {
        OFFSET 0 22.1894 -2.19456
        CHANNELS 3 Zrotation Xrotation Yrotation
        JOINT head
        {
          OFFSET -0.24384 7.07133 1.2192
          CHANNELS 3 Zrotation Xrotation Yrotation
          JOINT leftEye
          {
            OFFSET 4.14528 8.04674 8.04672
            CHANNELS 3 Zrotation Xrotation Yrotation
            End Site
            {
              OFFSET 1 0 0
            }
          }
          JOINT rightEye
          {
            OFFSET -3.6576 8.04674 8.04672
            CHANNELS 3 Zrotation Xrotation Yrotation
            End Site
            {
              OFFSET 1 0 0
            }
          }
        }
      }
      JOINT rCollar
      {
        OFFSET -2.68224 19.2634 -4.8768
        CHANNELS 3 Zrotation Xrotation Yrotation
        JOINT rShldr
        {
          OFFSET -8.77824 -1.95073 1.46304
          CHANNELS 3 Zrotation Xrotation Yrotation
          JOINT rForeArm
          {
            OFFSET -28.1742 -1.7115 0.48768
            CHANNELS 3 Zrotation Xrotation Yrotation
            JOINT rHand
            {
              OFFSET -22.5879 0.773209 7.07136
              CHANNELS 3 Zrotation Xrotation Yrotation
              JOINT rThumb1
              {
                OFFSET -1.2192 -0.487915 3.41376
                CHANNELS 3 Zrotation Xrotation Yrotation
                JOINT rThumb2
                {
                  OFFSET -3.37035 -0.52449 3.41376
                  CHANNELS 3 Zrotation Xrotation Yrotation
                  End Site
                  {
                    OFFSET -1.78271 -1.18214 1.43049
                  }
                }
              }
              JOINT rIndex1
              {
                OFFSET -7.75947 0.938293 5.60832
                CHANNELS 3 Zrotation Xrotation Yrotation
                JOINT rIndex2
                {
                  OFFSET -2.54057 -0.884171 1.56538
                  CHANNELS 3 Zrotation Xrotation Yrotation
                  End Site
                  {
                    OFFSET -1.62519 -0.234802 1.16502
                  }
                }
              }
              JOINT rMid1
              {
                OFFSET -8.24714 1.18213 3.41376
                CHANNELS 3 Zrotation Xrotation Yrotation
                JOINT rMid2
                {
                  OFFSET -3.10165 -0.590103 1.0647
                  CHANNELS 3 Zrotation Xrotation Yrotation
                  End Site
                  {
                    OFFSET -2.48547 -0.328903 0.83742
                  }
                }
              }
              JOINT rRing1
              {
                OFFSET -8.82822 0.546677 1.51678
                CHANNELS 3 Zrotation Xrotation Yrotation
                JOINT rRing2
                {
                  OFFSET -2.60934 -0.819778 -0.0198488
                  CHANNELS 3 Zrotation Xrotation Yrotation
                  End Site
                  {
                    OFFSET -2.33842 -0.294052 0.168128
                  }
                }
              }
              JOINT rPinky1
              {
                OFFSET -8.27202 -0.0477905 -0.4584
                CHANNELS 3 Zrotation Xrotation Yrotation
                JOINT rPinky2
                {
                  OFFSET -1.82734 -0.647385 -0.700984
                  CHANNELS 3 Zrotation Xrotation Yrotation
                  End Site
                  {
                    OFFSET -1.69225 -0.51767 -0.607171
                  }
                }
              }
            }
          }
        }
      }
      JOINT lCollar
      {
        OFFSET 2.68224 19.2634 -4.8768
        CHANNELS 3 Zrotation Xrotation Yrotation
        JOINT lShldr
        {
          OFFSET 8.77824 -1.95073 1.46304
          CHANNELS 3 Zrotation Xrotation Yrotation
          JOINT lForeArm
          {
            OFFSET 28.1742 -1.7115 0.48768
            CHANNELS 3 Zrotation Xrotation Yrotation
            JOINT lHand
            {
              OFFSET 22.5879 0.773209 7.07136
              CHANNELS 3 Zrotation Xrotation Yrotation
              JOINT lThumb1
              {
                OFFSET 1.2192 -0.487915 3.41376
                CHANNELS 3 Zrotation Xrotation Yrotation
                JOINT lThumb2
                {
                  OFFSET 3.37035 -0.52449 3.41376
                  CHANNELS 3 Zrotation Xrotation Yrotation
                  End Site
                  {
                    OFFSET 1.78271 -1.18214 1.43049
                  }
                }
              }
              JOINT lIndex1
              {
                OFFSET 7.75947 0.938293 5.60832
                CHANNELS 3 Zrotation Xrotation Yrotation
                JOINT lIndex2
                {
                  OFFSET 2.54057 -0.884171 1.56538
                  CHANNELS 3 Zrotation Xrotation Yrotation
                  End Site
                  {
                    OFFSET 1.62519 -0.234802 1.16502
                  }
                }
              }
              JOINT lMid1
              {
                OFFSET 8.24714 1.18213 3.41376
                CHANNELS 3 Zrotation Xrotation Yrotation
                JOINT lMid2
                {
                  OFFSET 3.10165 -0.590103 1.0647
                  CHANNELS 3 Zrotation Xrotation Yrotation
                  End Site
                  {
                    OFFSET 2.48547 -0.328903 0.83742
                  }
                }
              }
              JOINT lRing1
              {
                OFFSET 8.82822 0.546677 1.51678
                CHANNELS 3 Zrotation Xrotation Yrotation
                JOINT lRing2
                {
                  OFFSET 2.60934 -0.819778 -0.0198488
                  CHANNELS 3 Zrotation Xrotation Yrotation
                  End Site
                  {
                    OFFSET 2.33842 -0.294052 0.168128
                  }
                }
              }
              JOINT lPinky1
              {
                OFFSET 8.27202 -0.0477905 -0.4584
                CHANNELS 3 Zrotation Xrotation Yrotation
                JOINT lPinky2
                {
                  OFFSET 1.82734 -0.647385 -0.700984
                  CHANNELS 3 Zrotation Xrotation Yrotation
                  End Site
                  {
                    OFFSET 1.69225 -0.51767 -0.607171
                  }
                }
              }
            }
          }
        }
      }
    }
  }
  JOINT rButtock
  {
    OFFSET -8.77824 4.35084 1.2192
    CHANNELS 3 Zrotation Xrotation Yrotation
    JOINT rThigh
    {
      OFFSET 0 -1.70687 -2.19456
      CHANNELS 3 Zrotation Xrotation Yrotation
      JOINT rShin
      {
        OFFSET 0 -36.8199 0.73152
        CHANNELS 3 Zrotation Xrotation Yrotation
        JOINT rFoot
        {
          OFFSET 0.73152 -45.1104 -5.12064
          CHANNELS 3 Zrotation Xrotation Yrotation
          End Site
          {
            OFFSET -1.1221 -3.69964 12.103
          }
        }
      }
    }
  }
  JOINT lButtock
  {
    OFFSET 8.77824 4.35084 1.2192
    CHANNELS 3 Zrotation Xrotation Yrotation
    JOINT lThigh
    {
      OFFSET 0 -1.70687 -2.19456
      CHANNELS 3 Zrotation Xrotation Yrotation
      JOINT lShin
      {
        OFFSET 0 -36.8199 0.73152
        CHANNELS 3 Zrotation Xrotation Yrotation
        JOINT lFoot
        {
          OFFSET -0.73152 -45.1104 -5.12064
          CHANNELS 3 Zrotation Xrotation Yrotation
          End Site
          {
            OFFSET 1.1221 -3.69964 12.103
          }
        }
      }
    }
  }
}
MOTION
Frames:	4
Frame Time:	0.00833333
-16.2519 84.5294 7.69987 0.0 0.0 0.0 -0.769338 -0.0038604 -0.0215831 -0.21207 -0.00504141 -0.0367435 1.4634e-14 0.0 1.11816e-16 4.39097e-14 3.18055e-15 3.10601e-16 -0.0 0.0 0.0 -0.0 0.0 0.0 7.30431e-15 9.70628e-18 1.49089e-16 1.55056e-13 7.82715e-16 2.78299e-15 2.63101e-12 -7.79435e-13 -9.54166e-15 3.01331e-11 8.34796e-13 2.70347e-13 7.10721e-11 1.11746e-13 5.62958e-13 1.22736e-10 1.84472e-13 9.56552e-13 7.10794e-11 1.1291e-13 5.56597e-13 7.73091 5.47488 0.417314 7.10716e-11 1.1122e-13 5.66139e-13 2.90554 0.965183 0.102902 7.10854e-11 1.12413e-13 5.58982e-13 10.2786 0.731801 0.0259123 7.10657e-11 1.13705e-13 5.59778e-13 2.22167 -0.733487 -0.20892 7.30685e-15 9.31803e-18 -4.96962e-17 1.49962e-13 3.10601e-16 7.95139e-16 2.63549e-12 7.93151e-13 -3.18055e-15 3.01193e-11 -7.57221e-13 2.57625e-13 7.10549e-11 7.49918e-14 5.47055e-13 1.22703e-10 1.27222e-13 9.62118e-13 7.10464e-11 7.67309e-14 5.53417e-13 -7.73091 5.47488 -0.417314 7.10544e-11 7.4743e-14 5.47055e-13 -2.90554 0.965183 -0.102902 7.1042e-11 7.5737e-14 5.55007e-13 -10.2786 0.731801 -0.0259123 7.10596e-11 7.59357e-14 5.50236e-13 -2.22167 -0.733487 0.20892 -2.03217e-16 0.0 -3.88251e-19 -0.0540238 -2.09675 -0.0177061 -0.00903933 -1.7549 -0.0760355 -0.528815 3.85119 0.139759 2.03217e-16 0.0 3.88251e-19 -1.11498 -4.98912 0.0938629 0.00115223 3.48415 -0.00506388 0.537128 1.50464 -0.0922954
-22.7169 82.8369 1.43929 53.7222 -86.912 -52.5241 -2.03078 -1.25707 1.48197 -1.95823 2.72649 0.536139 1.6481 3.22528 2.51726 -47.0579 6.50303 5.04172 -0.0 0.0 0.0 -0.0 0.0 0.0 3.13883e-14 5.07802e-14 -1.64584e-14 23.3745 7.222 2.86485 -6.79521 -3.86114 9.63942 0.00587141 1.69983 0.238515 -2.55028e-11 3.82696e-11 -1.94489e-10 -4.44663e-11 6.60133e-11 -3.35543e-10 -2.54971e-11 3.82711e-11 -1.94496e-10 7.73091 5.47488 0.417314 -2.55026e-11 3.82693e-11 -1.94486e-10 2.90554 0.965183 0.102902 -2.5492e-11 3.82697e-11 -1.94492e-10 10.2786 0.731801 0.0259123 -2.55073e-11 3.82709e-11 -1.94489e-10 2.22167 -0.733487 -0.20892 3.13955e-14 5.0785e-14 -1.6715e-14 -17.9798 11.3922 -4.74616 6.4483 -3.57114 -9.27805 -0.000894847 0.663552 -0.0932335 -2.55239e-10 1.11382e-10 -1.26023e-10 -4.4288e-10 1.92771e-10 -2.17355e-10 -2.55246e-10 1.11383e-10 -1.26015e-10 -7.73091 5.47488 -0.417314 -2.55239e-10 1.11382e-10 -1.26023e-10 -2.90554 0.965183 -0.102902 -2.55251e-10 1.11382e-10 -1.26018e-10 -10.2786 0.731801 -0.0259123 -2.55235e-10 1.11383e-10 -1.26025e-10 -2.22167 -0.733487 0.20892 -2.03217e-16 0.0 -3.88251e-19 -3.03958 -7.08149 0.941085 0.0574784 10.1743 0.148844 -1.17558 -4.01845 -4.39909 2.03217e-16 0.0 3.88251e-19 0.911512 -8.33469 0.193332 -0.023951 12.1682 -0.170053 1.32314 -5.34006 5.76895
-22.7261 82.7281 1.46612 53.4563 -86.8176 -52.2941 -3.29191 -2.57787 3.07472 -3.86569 5.61282 1.14627 3.09057 6.60234 5.1902 -98.0623 13.2304 10.5809 -0.0 0.0 0.0 -0.0 0.0 0.0 5.52562e-14 8.55389e-14 -3.53992e-14 47.2779 14.7937 6.04718 -12.585 -7.57905 19.9675 -0.00333728 3.49726 0.491439 -1.06035e-10 7.96981e-11 -3.89523e-10 -1.83891e-10 1.37512e-10 -6.72101e-10 -1.06031e-10 7.96999e-11 -3.89531e-10 7.73091 5.47488 0.417314 -1.06034e-10 7.9698e-11 -3.89522e-10 2.90554 0.965183 0.102902 -1.06027e-10 7.96974e-11 -3.89525e-10 10.2786 0.731801 0.0259123 -1.06038e-10 7.96986e-11 -3.89521e-10 2.22167 -0.733487 -0.20892 5.52716e-14 8.55493e-14 -3.57191e-14 -34.7806 23.17 -10.4186 12.0235 -7.03449 -19.2 0.000507764 1.36482 -0.191809 -5.84717e-10 2.27158e-10 -2.53675e-10 -1.01405e-09 3.93138e-10 -4.3757e-10 -5.84721e-10 2.27159e-10 -2.53665e-10 -7.73091 5.47488 -0.417314 -5.84716e-10 2.27159e-10 -2.53673e-10 -2.90554 0.965183 -0.102902 -5.84727e-10 2.27158e-10 -2.53673e-10 -10.2786 0.731801 -0.0259123 -5.84712e-10 2.27159e-10 -2.53681e-10 -2.22167 -0.733487 0.20892 -2.03217e-16 0.0 -3.88251e-19 -6.00905 -12.3467 1.995 0.0191328 22.7938 0.414269 -3.23324 -12.226 -9.36967 2.03217e-16 0.0 3.88251e-19 3.06709 -11.8626 0.301522 0.00764974 21.3325 -0.361032 3.69483 -12.346 12.2006
-22.7251 82.6191 1.4487 52.9224 -86.9097 -51.7405 -4.3562 -3.75318 4.49768 -5.61581 8.18638 1.69738 4.08659 9.60064 7.64756 -144.727 18.8886 15.9049 -0.0 0.0 0.0 -0.0 0.0 0.0 7.95563e-14 1.52321e-13 -4.96733e-14 67.8296 21.4411 9.16554 -16.6205 -10.2734 29.3676 -0.0249852 5.09913 0.718073 -2.18653e-10 1.14585e-10 -5.84592e-10 -3.78872e-10 1.97671e-10 -1.00854e-09 -2.1865e-10 1.14587e-10 -5.84601e-10 7.73091 5.47488 0.417314 -2.18651e-10 1.14586e-10 -5.84592e-10 2.90554 0.965183 0.102902 -2.18647e-10 1.14584e-10 -5.84593e-10 10.2786 0.731801 0.0259123 -2.18653e-10 1.14585e-10 -5.84588e-10 2.22167 -0.733487 -0.20892 7.95729e-14 1.52336e-13 -5.00456e-14 -47.4175 33.1454 -16.7426 15.9868 -9.59137 -28.2084 0.00379727 1.99063 -0.279851 -9.07828e-10 3.33996e-10 -3.79164e-10 -1.57404e-09 5.7806e-10 -6.53989e-10 -9.0783e-10 3.33997e-10 -3.79152e-10 -7.73091 5.47488 -0.417314 -9.07826e-10 3.33998e-10 -3.79162e-10 -2.90554 0.965183 -0.102902 -9.07837e-10 3.33996e-10 -3.79165e-10 -10.2786 0.731801 -0.0259123 -9.07823e-10 3.33998e-10 -3.79175e-10 -2.22167 -0.733487 0.20892 -2.03217e-16 0.0 -3.88251e-19 -8.49018 -17.0323 2.96736 -0.134723 34.0307 0.713753 -6.34406 -19.2292 -14.2543 2.03217e-16 0.0 3.88251e-19 5.0006 -15.0256 0.40055 0.0957614 29.5354 -0.561565 7.20467 -18.2029 18.3653
